<svg width="60" height="58" viewBox="0 0 60 58" fill="none" xmlns="http://www.w3.org/2000/svg">
<path fill-rule="evenodd" clip-rule="evenodd" d="M47.495 12.96C54.022 12.96 59.313 18.251 59.313 24.778C59.313 31.091 54.363 36.247 48.131 36.578C50.796 38.745 52.499 42.048 52.499 45.75C52.499 52.276 47.208 57.567 40.681 57.567C35.655 57.567 31.364 54.427 29.656 50.003C27.948 54.427 23.658 57.567 18.631 57.567C12.105 57.567 6.814 52.277 6.814 45.75C6.814 42.048 8.517 38.745 11.181 36.578C4.951 36.247 0 31.091 0 24.778C0 18.251 5.291 12.96 11.817 12.96C14.184 12.96 16.387 13.659 18.236 14.858C17.978 13.888 17.839 12.869 17.839 11.817C17.839 5.291 23.129 0 29.656 0C36.182 0 41.473 5.29 41.473 11.817C41.473 12.869 41.334 13.887 41.076 14.858C42.925 13.659 45.128 12.96 47.495 12.96ZM29.6572 21.468C30.7012 21.468 31.5482 20.622 31.5482 19.577C31.5482 18.532 30.7012 17.685 29.6572 17.686C28.6132 17.686 27.7662 18.533 27.7662 19.577C27.7662 20.621 28.6122 21.468 29.6572 21.468ZM31.5482 41.457C31.5482 42.501 30.7012 43.348 29.6572 43.348C28.6122 43.348 27.7662 42.501 27.7662 41.457C27.7662 40.412 28.6132 39.566 29.6572 39.566C30.7012 39.566 31.5482 40.412 31.5482 41.457ZM23.2582 24.119C23.9972 23.38 23.9972 22.183 23.2582 21.444C22.5202 20.705 21.3222 20.705 20.5832 21.444C19.8442 22.183 19.8442 23.38 20.5832 24.119C21.3222 24.858 22.5202 24.858 23.2582 24.119ZM38.7302 36.915C39.4692 37.654 39.4692 38.851 38.7302 39.59C37.9912 40.329 36.7942 40.329 36.0552 39.59C35.3162 38.851 35.3162 37.654 36.0552 36.915C36.7942 36.177 37.9912 36.177 38.7302 36.915ZM20.6072 30.516C20.6072 29.472 19.7602 28.625 18.7162 28.625C17.6722 28.625 16.8252 29.472 16.8252 30.516C16.8252 31.56 17.6722 32.407 18.7162 32.407C19.7602 32.407 20.6072 31.56 20.6072 30.516ZM40.5972 28.625C41.6422 28.625 42.4882 29.472 42.4882 30.516C42.4882 31.56 41.6412 32.407 40.5972 32.407C39.5532 32.407 38.7062 31.56 38.7062 30.516C38.7062 29.472 39.5522 28.625 40.5972 28.625ZM23.2592 36.915C22.5202 36.176 21.3232 36.176 20.5842 36.915C19.8452 37.654 19.8452 38.851 20.5842 39.59C21.3232 40.329 22.5212 40.329 23.2592 39.59C23.9982 38.851 23.9982 37.654 23.2592 36.915ZM36.0552 21.444C36.7942 20.705 37.9912 20.705 38.7302 21.444C39.4692 22.183 39.4692 23.38 38.7302 24.119C37.9912 24.858 36.7942 24.858 36.0552 24.119C35.3172 23.38 35.3172 22.182 36.0552 21.444ZM30.7032 27.991L29.6572 23.359L28.6102 27.991L24.5952 25.455L27.1312 29.471L22.4992 30.517L27.1312 31.563L24.5952 35.578L28.6102 33.043L29.6572 37.675L30.7032 33.043L34.7182 35.578L32.1832 31.563L36.8152 30.517L32.1832 29.471L34.7182 25.455L30.7032 27.991Z" fill="#EFEFEF"/>
</svg>
