<svg width="63" height="61" viewBox="0 0 63 61" fill="none" xmlns="http://www.w3.org/2000/svg">
<path d="M60.672 26.695C60.672 19.866 55.136 14.329 48.306 14.329C46.665 14.329 45.101 14.651 43.668 15.232C43.688 14.945 43.702 14.657 43.702 14.366C43.702 7.537 38.166 2 31.336 2C24.507 2 18.97 7.536 18.97 14.366C18.97 14.658 18.984 14.946 19.004 15.232C17.571 14.652 16.007 14.329 14.366 14.329C7.537 14.329 2 19.865 2 26.695C2 32.494 5.99301 37.359 11.378 38.695C9.57201 40.845 8.482 43.617 8.482 46.644C8.482 53.473 14.018 59.01 20.848 59.01C25.272 59.01 29.151 56.685 31.336 53.193C33.522 56.686 37.4 59.01 41.824 59.01C48.653 59.01 54.19 53.474 54.19 46.644C54.19 43.616 53.1 40.844 51.294 38.695C56.68 37.359 60.672 32.494 60.672 26.695Z" stroke="#008813" stroke-width="2.8898" stroke-miterlimit="10"/>
<path d="M31.3373 19.658L31.3378 19.658C32.105 19.6572 32.7283 20.2798 32.7283 21.049C32.7283 21.8168 32.1051 22.44 31.3373 22.44C30.5686 22.44 29.9463 21.817 29.9463 21.049C29.9463 20.2811 30.5694 19.658 31.3373 19.658Z" fill="#EDEDED" stroke="#008813"/>
<path d="M32.7283 42.9288C32.7283 43.6967 32.1051 44.3199 31.3373 44.3199C30.5686 44.3199 29.9463 43.6969 29.9463 42.9288C29.9463 42.161 30.5694 41.5378 31.3373 41.5378C32.1053 41.5378 32.7283 42.1602 32.7283 42.9288Z" fill="#EDEDED" stroke="#008813"/>
<path d="M24.5847 25.2365L24.5844 25.2367C24.0419 25.78 23.1607 25.7804 22.6168 25.2365C22.0731 24.6928 22.073 23.8125 22.6167 23.2687C23.1606 22.7257 24.0421 22.7261 24.5847 23.2686C25.1284 23.8124 25.1284 24.6928 24.5847 25.2365Z" fill="#EDEDED" stroke="#008813"/>
<path d="M38.0882 40.7081L38.0885 40.7083C38.6322 41.2521 39.5126 41.2521 40.0564 40.7083C40.6 40.1647 40.6001 39.2844 40.0566 38.7407C40.0566 38.7407 40.0566 38.7406 40.0565 38.7406M38.0882 40.7081L40.4099 38.3869M38.0882 40.7081C37.5449 40.1655 37.5446 39.2843 38.0885 38.7404C38.6319 38.197 39.5124 38.1973 40.0565 38.7406M38.0882 40.7081L40.0565 38.7406M40.0565 38.7406C40.0565 38.7406 40.0564 38.7405 40.0564 38.7404L40.4099 38.3869M40.4099 38.3869C39.6709 37.6489 38.4739 37.6479 37.7349 38.3869C36.9959 39.1259 36.9959 40.3239 37.7349 41.0619C38.4739 41.8009 39.6709 41.8009 40.4099 41.0619C41.1489 40.3229 41.1489 39.1259 40.4099 38.3869Z" fill="#EDEDED" stroke="#008813"/>
<path d="M20.3959 30.5979C21.1637 30.5979 21.7869 31.221 21.7869 31.9889C21.7869 32.7567 21.1637 33.3799 20.3959 33.3799C19.628 33.3799 19.0049 32.7568 19.0049 31.9889C19.0049 31.2202 19.6278 30.5979 20.3959 30.5979Z" fill="#EDEDED" stroke="#008813"/>
<path d="M42.2767 30.5969C43.0454 30.5969 43.6677 31.2199 43.6677 31.9879C43.6677 32.7558 43.0446 33.3789 42.2767 33.3789C41.5089 33.3789 40.8857 32.7558 40.8857 31.9879C40.8857 31.2199 41.5081 30.5969 42.2767 30.5969Z" fill="#EDEDED" stroke="#008813"/>
<path d="M24.5856 40.7084L24.5854 40.7087C24.0429 41.252 23.1616 41.2523 22.6178 40.7084C22.074 40.1647 22.074 39.2843 22.6178 38.7406C23.1615 38.1968 24.0419 38.1968 24.5856 38.7406C25.1294 39.2843 25.1294 40.1647 24.5856 40.7084Z" fill="#EDEDED" stroke="#008813"/>
<path d="M40.0568 23.2688C39.513 22.7259 38.6325 22.7258 38.0887 23.2686C37.5457 23.8126 37.5462 24.694 38.0887 25.2365C38.6324 25.7802 39.5129 25.7802 40.0566 25.2365C40.6002 24.6928 40.6003 23.8126 40.0568 23.2689C40.0568 23.2688 40.0568 23.2688 40.0568 23.2688ZM40.0568 23.2688C40.0567 23.2687 40.0566 23.2687 40.0566 23.2686L40.4101 22.9151L40.0568 23.2688Z" fill="#EDEDED" stroke="#008813"/>
<path d="M32.6497 29.8858L34.7936 28.5317L33.4399 30.6762L33.062 31.2748L33.7526 31.4308L36.2248 31.989L33.7526 32.5473L33.0619 32.7033L33.4399 33.302L34.7936 35.4459L32.6496 34.0923L32.0509 33.7143L31.895 34.4049L31.3365 36.8782L30.7774 34.4048L30.6213 33.7143L30.0228 34.0923L27.8797 35.4454L29.2334 33.3021L29.6116 32.7033L28.9209 32.5473L26.4486 31.989L28.9209 31.4308L29.6115 31.2748L29.2335 30.6761L27.8796 28.5322L30.0227 29.8858L30.6213 30.2639L30.7774 29.5733L31.3365 27.0999L31.895 29.5732L32.051 30.264L32.6497 29.8858Z" fill="#EDEDED" stroke="#008813"/>
</svg>
